<?xml version="1.0" standalone="no"?>
<!DOCTYPE svg PUBLIC "-//W3C//DTD SVG 20010904//EN"
 "http://www.w3.org/TR/2001/REC-SVG-20010904/DTD/svg10.dtd">
<svg version="1.0" xmlns="http://www.w3.org/2000/svg"
 width="260.000000pt" height="260.000000pt" viewBox="0 0 260.000000 260.000000"
 preserveAspectRatio="xMidYMid meet">
<metadata>
Created by potrace 1.14, written by Peter Selinger 2001-2017
</metadata>
<g transform="translate(0.000000,260.000000) scale(0.100000,-0.100000)"
fill="#000000" stroke="none">
<path d="M555 1406 c-5 -18 -21 -132 -28 -201 -2 -18 3 -20 67 -18 54 1 73 6
89 22 l20 20 17 -21 c13 -17 27 -21 76 -20 61 1 103 7 112 17 3 3 -26 5 -64 5
-42 0 -77 5 -88 13 -17 12 -17 15 1 50 10 20 24 37 31 37 14 0 8 34 -10 57
-19 23 3 35 51 29 44 -6 45 -6 21 8 -14 9 -40 15 -57 16 -27 0 -34 -5 -39 -25
-4 -17 -1 -32 10 -44 20 -22 21 -32 1 -24 -9 3 -15 2 -13 -3 3 -14 -12 -54
-21 -54 -5 0 -8 8 -8 18 3 46 -14 88 -42 105 -34 20 -121 29 -126 13z m107
-53 c29 -35 18 -98 -20 -116 -32 -15 -67 -16 -67 -2 1 22 17 130 21 136 6 11
53 -2 66 -18z"/>
<path d="M961 1402 c-5 -9 -11 -37 -14 -62 -3 -25 -8 -69 -12 -97 -6 -44 -5
-54 9 -59 22 -9 25 -5 32 47 9 69 13 91 17 96 4 3 41 -62 71 -124 6 -13 16
-23 21 -23 16 0 36 16 34 26 -1 5 -1 11 0 14 4 11 13 108 15 150 1 33 -3 45
-13 45 -16 0 -26 -30 -34 -95 -2 -22 -7 -43 -9 -46 -3 -3 -20 23 -38 58 -48
94 -60 105 -79 70z"/>
<path d="M1179 1411 c-24 -10 -17 -36 9 -35 22 1 23 -2 18 -37 -18 -129 -18
-159 -3 -159 18 0 29 15 33 44 16 134 22 159 34 151 15 -9 41 7 38 23 -2 12
-17 16 -59 17 -30 1 -62 -1 -70 -4z"/>
<path d="M1335 1410 c-5 -9 -13 -53 -22 -125 -11 -89 -10 -99 9 -103 20 -4 25
15 44 179 6 48 4 56 -10 56 -9 0 -19 -3 -21 -7z"/>
<path d="M1430 1400 c-32 -32 -23 -67 33 -123 10 -10 17 -26 15 -35 -4 -23
-37 -27 -52 -7 -12 16 -13 16 -29 0 -15 -15 -15 -18 -2 -32 21 -20 86 -27 106
-11 9 7 19 27 23 43 6 26 1 37 -29 72 -19 23 -35 46 -35 51 0 19 23 25 34 10
10 -14 14 -14 31 -1 20 14 20 15 -4 34 -30 25 -66 24 -91 -1z"/>
<path d="M1560 1399 c-7 -12 -5 -19 6 -23 9 -3 20 -3 26 0 7 5 8 -16 3 -62
-12 -114 -12 -127 7 -129 20 -4 25 9 33 94 7 75 19 103 40 95 15 -6 33 22 21
33 -3 4 -33 7 -67 8 -48 1 -62 -2 -69 -16z"/>
<path d="M1716 1361 c-4 -31 -8 -67 -11 -81 -15 -93 -15 -96 5 -97 25 -2 27 2
34 67 4 30 10 79 15 108 4 28 5 52 2 53 -3 0 -13 2 -22 4 -13 2 -18 -9 -23
-54z"/>
<path d="M1861 1403 c-49 -26 -73 -63 -73 -111 1 -78 53 -119 138 -109 55 6
73 19 54 42 -9 11 -16 13 -24 5 -5 -5 -27 -10 -47 -10 -29 0 -43 6 -58 26 -26
33 -26 58 -1 94 25 34 70 46 112 29 25 -10 31 -10 39 2 23 38 -82 62 -140 32z"/>
<path d="M2140 1406 c-5 -5 -10 -13 -10 -17 0 -3 -22 -46 -50 -95 -27 -49 -50
-95 -50 -101 0 -23 36 -14 50 11 7 14 22 26 34 28 36 5 76 -4 76 -17 0 -17 27
-38 39 -31 8 5 4 31 -23 141 -22 89 -38 109 -66 81z m29 -118 c1 -11 -6 -18
-17 -18 -29 0 -32 10 -15 44 15 28 17 29 24 11 4 -11 8 -28 8 -37z"/>
</g>
</svg>
