<?xml version="1.0" standalone="no"?>
<!DOCTYPE svg PUBLIC "-//W3C//DTD SVG 20010904//EN"
 "http://www.w3.org/TR/2001/REC-SVG-20010904/DTD/svg10.dtd">
<svg version="1.0" xmlns="http://www.w3.org/2000/svg"
 width="1180.000000pt" height="1180.000000pt" viewBox="0 0 1180.000000 1180.000000"
 preserveAspectRatio="xMidYMid meet">
<metadata>
Created by potrace 1.14, written by Peter Selinger 2001-2017
</metadata>
<g transform="translate(0.000000,1180.000000) scale(0.100000,-0.100000)"
fill="#000000" stroke="none">
<path d="M369 8450 c-66 -19 -108 -56 -174 -157 -25 -37 -49 -73 -54 -79 -20
-24 -87 -247 -111 -372 -9 -41 -16 -59 -21 -50 -5 7 -9 -36 -9 -99 0 -70 4
-113 10 -113 6 0 8 -12 4 -27 -4 -19 -3 -24 4 -15 7 11 11 8 15 -10 56 -231
77 -304 119 -418 21 -58 43 -114 48 -125 5 -11 32 -74 61 -140 46 -104 82
-170 124 -224 35 -46 109 -120 115 -116 4 3 13 -1 19 -9 29 -35 145 8 204 77
29 34 182 227 215 272 73 100 138 256 160 390 14 82 6 319 -14 387 -4 15 -7
27 -19 83 -11 50 -54 173 -73 206 -31 56 -56 104 -57 109 -1 5 -16 30 -83 134
-51 78 -190 223 -243 253 -71 41 -179 60 -240 43z"/>
<path d="M8780 7555 c-89 -13 -144 -21 -220 -31 -52 -7 -72 -10 -120 -18 -19
-3 -46 -8 -60 -10 -14 -2 -54 -12 -90 -21 -36 -9 -75 -19 -87 -21 -12 -2 -33
-8 -45 -13 -13 -5 -25 -9 -28 -9 -3 0 -12 -3 -20 -6 -8 -2 -60 -19 -115 -36
-55 -18 -113 -38 -130 -45 -16 -7 -68 -27 -115 -45 -47 -18 -98 -39 -115 -46
-295 -124 -395 -168 -525 -231 -85 -40 -161 -80 -170 -88 -8 -7 -21 -15 -29
-17 -8 -2 -73 -36 -145 -77 -72 -40 -158 -88 -191 -105 -33 -18 -71 -39 -85
-48 -14 -9 -44 -26 -67 -39 -96 -54 -534 -327 -560 -349 -7 -5 -15 -10 -17
-10 -3 0 -42 -25 -87 -55 -45 -30 -85 -55 -90 -55 -5 0 -9 -3 -9 -7 0 -5 -23
-21 -51 -38 -28 -16 -64 -40 -79 -52 -15 -13 -30 -23 -34 -23 -5 0 -206 -139
-216 -150 -3 -3 -16 -11 -30 -18 -14 -7 -97 -66 -185 -132 -88 -66 -171 -127
-184 -137 -13 -10 -29 -23 -35 -28 -6 -6 -24 -21 -41 -33 -144 -111 -473 -423
-545 -517 -9 -11 -29 -38 -45 -60 -17 -22 -36 -46 -42 -53 -7 -7 -13 -17 -13
-20 0 -4 -10 -18 -22 -32 -19 -21 -43 -58 -108 -170 -51 -88 -159 -348 -208
-500 -32 -102 -78 -280 -87 -345 -4 -22 -10 -56 -14 -75 -11 -56 -5 -254 9
-306 22 -78 66 -125 135 -143 27 -7 174 -6 205 2 14 4 52 13 85 22 200 50 527
219 945 489 36 23 69 43 74 43 5 1 12 5 15 10 3 5 38 31 76 58 39 27 75 54 81
60 6 5 22 17 34 25 62 42 327 243 374 284 11 10 73 58 136 106 63 49 124 97
135 107 11 10 81 68 155 128 74 60 149 121 165 136 17 15 68 59 115 99 77 65
196 169 224 195 36 34 152 138 206 185 35 30 79 70 98 88 20 18 52 47 72 65
20 18 71 63 112 100 235 210 668 505 863 587 104 43 129 53 135 55 3 1 12 4
20 8 52 20 167 55 212 63 9 2 36 11 60 20 45 16 61 19 198 30 102 8 437 9 535
1 91 -8 183 -18 209 -23 12 -2 37 -7 56 -10 40 -6 65 -11 100 -19 14 -3 39 -7
55 -10 43 -6 84 -14 135 -25 25 -6 55 -12 68 -15 13 -2 31 -6 40 -9 9 -3 28
-7 42 -10 14 -2 54 -11 90 -20 68 -16 123 -28 127 -27 2 0 17 -5 35 -10 18 -5
44 -12 58 -14 14 -2 51 -11 83 -18 31 -8 57 -13 57 -10 0 2 9 -1 19 -6 10 -6
39 -13 62 -16 24 -3 67 -10 94 -16 28 -5 61 -12 75 -15 14 -2 36 -7 50 -11 14
-4 34 -7 45 -8 11 -1 43 -5 70 -9 136 -23 307 -38 409 -37 236 2 369 44 474
151 48 50 93 137 99 194 9 76 -33 205 -98 298 -30 44 -184 197 -234 234 -22
16 -42 32 -45 35 -9 11 -194 125 -260 160 -36 18 -66 37 -68 42 -2 4 -8 7 -14
7 -6 0 -60 24 -122 54 -96 46 -270 122 -301 130 -5 2 -17 6 -25 9 -35 13 -270
87 -325 102 -33 9 -94 25 -135 36 -69 19 -127 33 -189 45 -14 3 -28 7 -31 9
-4 2 -20 7 -36 9 -16 3 -40 8 -54 11 -14 3 -41 8 -60 10 -19 3 -44 8 -56 10
-12 3 -39 7 -60 10 -21 4 -46 8 -55 11 -8 2 -40 6 -70 9 -30 3 -72 8 -94 11
-81 12 -549 11 -635 -1z"/>
<path d="M5198 7334 c-2 -1 -32 -5 -68 -9 -36 -3 -92 -13 -125 -22 -33 -8 -67
-16 -76 -18 -151 -30 -582 -209 -774 -323 -16 -10 -52 -31 -80 -47 -76 -44
-277 -184 -374 -260 -120 -93 -387 -370 -535 -555 -100 -125 -166 -190 -192
-190 -32 0 -130 70 -201 142 -78 80 -253 244 -345 323 -55 48 -224 175 -232
175 -4 0 -16 8 -26 18 -11 10 -36 27 -57 38 -59 32 -88 49 -93 55 -3 3 -52 25
-110 48 -58 24 -112 47 -121 51 -15 8 -83 23 -164 36 -54 9 -278 8 -340 0 -59
-9 -177 -48 -196 -65 -8 -7 -36 -26 -64 -42 -99 -58 -121 -75 -193 -149 -59
-61 -108 -149 -149 -267 -23 -68 -27 -96 -29 -223 -3 -173 23 -318 86 -475 4
-11 18 -47 31 -80 41 -109 182 -369 298 -550 14 -22 26 -42 26 -45 1 -6 38
-63 45 -70 4 -3 46 -63 95 -135 76 -112 132 -191 163 -230 4 -5 27 -38 52 -73
46 -65 90 -121 140 -182 17 -19 74 -89 127 -155 54 -66 101 -121 105 -123 5
-2 8 -7 8 -12 0 -5 24 -33 52 -62 29 -30 96 -99 148 -154 233 -243 416 -374
522 -374 42 0 124 23 138 39 3 3 21 15 40 25 62 35 184 129 238 185 57 58 181
242 224 331 28 60 77 190 84 229 3 13 12 40 20 59 8 19 17 49 20 66 2 17 9 47
14 66 23 93 32 397 16 525 -4 33 -10 76 -12 95 -3 19 -7 53 -10 75 -3 22 -7
47 -8 55 -3 14 -13 126 -20 209 -6 67 16 120 79 199 40 50 402 405 445 437 46
33 204 154 217 165 7 5 15 10 18 10 3 0 26 15 52 34 47 33 94 60 203 119 30
16 78 41 105 56 28 15 77 37 110 50 33 13 74 29 90 36 59 24 90 35 110 40 11
2 45 11 76 19 30 9 73 18 95 21 21 2 56 7 77 11 79 13 93 15 127 19 19 2 55 6
80 9 25 3 61 7 80 10 19 3 62 8 94 11 166 16 202 33 247 117 30 54 50 114 64
185 2 10 4 18 5 18 5 0 10 49 11 105 1 134 -57 250 -156 312 -22 14 -42 25
-45 26 -3 0 -17 5 -32 11 -41 16 -239 36 -250 25z"/>
<path d="M10434 4578 c-5 -8 -6 -889 -1 -958 l2 -35 93 -3 c50 -1 92 1 93 5 0
4 2 91 5 193 7 264 8 272 31 311 26 40 58 69 78 69 7 0 16 4 20 10 7 12 99 6
140 -9 61 -22 62 -33 68 -401 l3 -175 92 -3 c70 -2 92 0 92 10 1 7 1 135 2
284 0 294 1 290 -59 358 -51 57 -99 77 -190 78 -91 1 -88 2 -167 -38 -45 -22
-67 -41 -83 -70 -13 -21 -23 -32 -23 -24 -1 8 -2 97 -3 197 -1 124 -6 186 -14
194 -13 13 -171 20 -179 7z"/>
<path d="M8255 4504 c-82 -49 -103 -76 -98 -128 2 -23 6 -46 8 -53 6 -17 -11
-26 -54 -27 -33 -1 -36 -4 -41 -36 -3 -19 -3 -48 0 -65 5 -29 8 -30 50 -27
l45 3 0 -238 0 -238 28 -48 c26 -44 52 -66 87 -75 23 -5 160 -8 190 -4 61 9
51 121 -10 122 -14 1 -41 9 -60 19 l-35 19 -1 104 c-1 56 -3 150 -4 208 -1 58
-1 111 -1 117 1 10 18 12 62 9 87 -6 90 -4 87 65 l-2 59 -41 2 c-22 0 -52 1
-67 1 -16 0 -29 2 -29 6 -3 11 -7 84 -9 156 -3 98 -15 103 -105 49z"/>
<path d="M6597 4300 c-126 -34 -217 -134 -249 -275 -23 -100 -10 -202 38 -295
33 -66 62 -94 133 -131 60 -32 67 -33 183 -34 93 -1 131 3 171 17 51 18 75 26
89 27 4 1 10 11 14 24 6 20 51 67 65 67 3 0 11 11 17 24 10 23 8 26 -21 35
-18 5 -61 10 -98 10 -60 1 -67 -1 -94 -29 -49 -51 -143 -63 -207 -27 -43 24
-88 92 -95 144 l-5 33 234 0 c245 0 304 3 315 13 3 4 1 31 -6 59 -6 29 -13 63
-16 76 -3 12 -7 30 -9 41 -7 31 -43 94 -73 127 -28 32 -113 90 -113 78 0 -4
-7 -1 -15 6 -8 7 -15 9 -15 6 0 -4 -8 -2 -18 3 -37 20 -154 20 -225 1z m198
-137 c30 -16 60 -53 84 -100 26 -51 27 -73 4 -74 -10 0 -85 -1 -167 -2 -171
-2 -199 6 -171 49 8 13 13 24 9 24 -12 0 56 84 83 101 31 21 122 21 158 2z"/>
<path d="M7498 4315 c-2 -2 -19 -6 -38 -9 -89 -15 -139 -36 -175 -73 -36 -37
-47 -68 -51 -133 -4 -64 10 -106 44 -137 23 -21 121 -62 187 -79 17 -4 35 -8
40 -10 6 -1 21 -5 35 -7 21 -5 58 -16 183 -54 20 -6 22 -36 6 -81 -12 -35 -39
-45 -134 -46 -75 -2 -141 19 -162 51 -29 44 -61 53 -144 42 -106 -15 -104 -14
-77 -51 34 -49 103 -119 119 -122 8 -1 32 -10 54 -20 29 -13 72 -18 155 -19
200 -4 273 16 355 99 l41 41 -2 79 c-1 43 -2 81 -3 84 -3 12 -48 58 -76 77
-34 24 -180 72 -240 79 -53 7 -166 44 -188 63 -29 24 -17 53 34 79 87 44 199
24 263 -48 26 -30 28 -31 52 -15 13 8 52 17 87 19 34 2 65 4 70 5 4 1 0 9 -9
19 -8 9 -29 37 -45 60 -33 47 -100 85 -174 97 -40 7 -202 15 -207 10z"/>
<path d="M8850 4292 c-31 -9 -67 -27 -80 -39 -13 -13 -27 -23 -31 -23 -12 0
-74 -93 -92 -137 -37 -93 -40 -166 -13 -268 39 -149 112 -228 231 -253 60 -12
233 -8 288 7 58 17 167 119 167 157 0 13 -6 25 -12 25 -7 1 -43 3 -81 4 -55 2
-70 0 -80 -15 -44 -62 -172 -80 -244 -33 -40 25 -69 73 -79 130 -3 14 -7 30
-10 35 -3 4 -2 8 3 8 4 0 128 1 275 3 146 1 269 5 272 8 3 3 -2 43 -10 90 -28
146 -88 236 -194 286 -72 35 -223 42 -310 15z m199 -111 c13 -1 37 -16 56 -37
35 -38 83 -140 71 -151 -10 -11 -347 -6 -357 4 -12 12 17 88 47 125 29 37 86
65 126 62 18 -1 44 -3 57 -3z"/>
<path d="M9795 4305 c-64 -17 -103 -33 -119 -47 -11 -10 -23 -18 -28 -18 -11
0 -79 -76 -96 -108 -43 -82 -52 -269 -16 -350 21 -47 103 -151 120 -152 6 0
21 -11 33 -24 27 -28 75 -38 196 -41 108 -2 182 15 239 54 57 40 126 130 126
166 0 16 -46 32 -115 41 -51 6 -51 6 -78 -34 -14 -22 -43 -53 -63 -69 -71 -54
-177 -30 -242 55 -25 33 -27 43 -29 141 -2 86 1 117 18 162 19 51 25 59 65 74
50 19 144 18 184 -1 14 -7 41 -29 60 -49 33 -34 72 -46 85 -25 3 6 36 10 71
10 l66 0 -38 53 c-68 95 -112 129 -198 155 -21 6 -222 12 -241 7z"/>
</g>
</svg>
